<?xml version="1.0" encoding="UTF-8" standalone="no"?>
<!-- Created with Inkscape (http://www.inkscape.org/) -->

<svg
   width="19.84375mm"
   height="19.84375mm"
   viewBox="0 0 19.84375 19.84375"
   version="1.1"
   id="svg1"
   inkscape:export-filename="TheBlatFace.svg"
   inkscape:export-xdpi="95.999992"
   inkscape:export-ydpi="95.999992"
   inkscape:version="1.3.2 (091e20e, 2023-11-25, custom)"
   sodipodi:docname="drawings.svg"
   xmlns:inkscape="http://www.inkscape.org/namespaces/inkscape"
   xmlns:sodipodi="http://sodipodi.sourceforge.net/DTD/sodipodi-0.dtd"
   xmlns="http://www.w3.org/2000/svg"
   xmlns:svg="http://www.w3.org/2000/svg">
  <sodipodi:namedview
     id="namedview1"
     pagecolor="#ffffff"
     bordercolor="#000000"
     borderopacity="0.25"
     inkscape:showpageshadow="2"
     inkscape:pageopacity="0.0"
     inkscape:pagecheckerboard="0"
     inkscape:deskcolor="#d1d1d1"
     inkscape:document-units="mm"
     inkscape:zoom="4.1798822"
     inkscape:cx="258.61973"
     inkscape:cy="111.00791"
     inkscape:window-width="1718"
     inkscape:window-height="1360"
     inkscape:window-x="-7"
     inkscape:window-y="1080"
     inkscape:window-maximized="0"
     inkscape:current-layer="layer1">
    <inkscape:page
       x="0"
       y="0"
       width="19.84375"
       height="19.84375"
       id="page22"
       inkscape:label="AmeobaBody"
       margin="0"
       bleed="0" />
  </sodipodi:namedview>
  <defs
     id="defs1" />
  <g
     inkscape:label="Layer 1"
     inkscape:groupmode="layer"
     id="layer1"
     transform="translate(-149.51997,-167.63787)">
    <path
       id="path24"
       style="fill:#1eff97;fill-opacity:1;stroke:#000000;stroke-width:0.682655;stroke-linecap:round;stroke-linejoin:round;stroke-miterlimit:0;stroke-dasharray:none;stroke-opacity:1"
       d="m 155.8361,168.6621 a 5.3487082,5.3487082 0 0 0 -5.34903,5.34903 5.3487082,5.3487082 0 0 0 0.57826,2.3952 4.9404101,4.9404101 0 0 0 -0.94568,2.88665 4.9404101,4.9404101 0 0 0 4.94079,4.94026 4.9404101,4.9404101 0 0 0 2.96209,-1.00252 5.8386664,5.8386664 0 0 0 4.63228,2.3089 5.8386664,5.8386664 0 0 0 5.8384,-5.8384 5.8386664,5.8386664 0 0 0 -2.8143,-4.99349 4.4096227,4.4096227 0 0 0 0.24185,-1.41284 4.4096227,4.4096227 0 0 0 -4.40955,-4.40955 4.4096227,4.4096227 0 0 0 -2.52388,0.80512 5.3487082,5.3487082 0 0 0 -3.15123,-1.02836 z" />
  </g>
</svg>
