<?xml version="1.0" encoding="UTF-8" standalone="no"?>
<!-- Created with Inkscape (http://www.inkscape.org/) -->

<svg
   width="13.229167mm"
   height="13.229167mm"
   viewBox="0 0 13.229167 13.229167"
   version="1.1"
   id="svg1"
   xmlns="http://www.w3.org/2000/svg"
   xmlns:svg="http://www.w3.org/2000/svg">
  <defs
     id="defs1" />
  <g
     id="layer1"
     transform="translate(-184.07417,-141.17954)">
    <path
       style="fill:none;stroke:#000000;stroke-width:0.266093;stroke-linecap:round;stroke-linejoin:round;stroke-miterlimit:0;stroke-dasharray:none;stroke-opacity:1;paint-order:normal"
       id="path2"
       d="m 186.78426,147.62887 a 1.6105043,1.1234399 0 0 1 1.5573,-0.88832 1.6105043,1.1234399 0 0 1 1.5847,0.86443" />
    <path
       style="fill:none;stroke:#000000;stroke-width:0.201128;stroke-linecap:round;stroke-linejoin:round;stroke-miterlimit:0;stroke-dasharray:none;stroke-opacity:1;paint-order:normal"
       id="path2-1"
       d="m 184.76357,151.03394 a 2.9567084,0.93400598 0 0 1 1.94316,-0.55962 2.9567084,0.93400598 0 0 1 2.58587,0.15065" />
    <path
       style="fill:none;stroke:#000000;stroke-width:0.201128;stroke-linecap:round;stroke-linejoin:round;stroke-miterlimit:0;stroke-dasharray:none;stroke-opacity:1;paint-order:normal"
       id="path2-1-6"
       d="m 152.72243,184.67461 a 2.9567084,0.93400598 0 0 1 1.94316,-0.55962 2.9567084,0.93400598 0 0 1 2.58587,0.15065"
       transform="rotate(-10.91302)" />
    <path
       style="fill:none;stroke:#000000;stroke-width:0.201128;stroke-linecap:round;stroke-linejoin:round;stroke-miterlimit:0;stroke-dasharray:none;stroke-opacity:1;paint-order:normal"
       id="path2-1-4"
       d="m 120.34176,208.42119 a 2.9567084,0.93400598 0 0 1 1.94316,-0.55961 2.9567084,0.93400598 0 0 1 2.58588,0.15064"
       transform="rotate(-20.304074)" />
    <path
       style="fill:none;stroke:#000000;stroke-width:0.266093;stroke-linecap:round;stroke-linejoin:round;stroke-miterlimit:0;stroke-dasharray:none;stroke-opacity:1;paint-order:normal"
       id="path2-7"
       d="m -194.43098,147.62887 a 1.6105043,1.1234399 0 0 1 1.5573,-0.88832 1.6105043,1.1234399 0 0 1 1.5847,0.86443"
       transform="scale(-1,1)" />
    <path
       style="fill:none;stroke:#000000;stroke-width:0.201128;stroke-linecap:round;stroke-linejoin:round;stroke-miterlimit:0;stroke-dasharray:none;stroke-opacity:1;paint-order:normal"
       id="path2-1-62"
       d="m -196.45167,151.03394 a 2.9567084,0.93400598 0 0 1 1.94316,-0.55962 2.9567084,0.93400598 0 0 1 2.58587,0.15065"
       transform="scale(-1,1)" />
    <path
       style="fill:none;stroke:#000000;stroke-width:0.201128;stroke-linecap:round;stroke-linejoin:round;stroke-miterlimit:0;stroke-dasharray:none;stroke-opacity:1;paint-order:normal"
       id="path2-1-6-0"
       d="m -221.5988,112.50349 a 2.9567084,0.93400598 0 0 1 1.94316,-0.55961 2.9567084,0.93400598 0 0 1 2.58588,0.15064"
       transform="matrix(-0.98191572,-0.18931858,-0.18931858,0.98191572,0,0)" />
    <path
       style="fill:none;stroke:#000000;stroke-width:0.201128;stroke-linecap:round;stroke-linejoin:round;stroke-miterlimit:0;stroke-dasharray:none;stroke-opacity:1;paint-order:normal"
       id="path2-1-4-8"
       d="m -237.18638,76.138621 a 2.9567084,0.93400598 0 0 1 1.94316,-0.559614 2.9567084,0.93400598 0 0 1 2.58587,0.150645"
       transform="matrix(-0.93786426,-0.34700234,-0.34700234,0.93786426,0,0)" />
    <path
       style="fill:#fe45ff;fill-opacity:1;stroke:#000000;stroke-width:0.100564;stroke-linecap:round;stroke-linejoin:round;stroke-miterlimit:0;stroke-dasharray:none;stroke-opacity:1;paint-order:normal"
       id="path3"
       d="m 190.15898,149.66884 a 0.56945932,0.7535224 0 0 1 0.52808,-0.48049 0.56945932,0.7535224 0 0 1 0.53148,0.47388 l -0.5288,0.27963 z" />
    <path
       style="fill:none;fill-opacity:1;stroke:#000000;stroke-width:0.154921;stroke-linecap:round;stroke-linejoin:round;stroke-miterlimit:0;stroke-dasharray:none;stroke-opacity:1;paint-order:normal"
       id="path4"
       d="m 213.47052,-94.912323 a 3.353791,3.3341784 0 0 1 4.07138,-0.892756"
       transform="rotate(61.257951)" />
    <path
       style="fill:none;fill-opacity:1;stroke:#000000;stroke-width:0.154921;stroke-linecap:round;stroke-linejoin:round;stroke-miterlimit:0;stroke-dasharray:none;stroke-opacity:1;paint-order:normal"
       id="path4-3"
       d="m 142.53406,185.10011 a 3.353791,3.3341784 0 0 1 3.56636,-1.08906"
       transform="matrix(0.00541661,0.99998533,0.99998533,-0.00541661,0,0)" />
    <path
       style="fill:none;fill-opacity:1;stroke:#000000;stroke-width:0.154921;stroke-linecap:round;stroke-linejoin:round;stroke-miterlimit:0;stroke-dasharray:none;stroke-opacity:1;paint-order:normal"
       id="path4-4"
       d="m 30.225169,239.52283 a 3.353791,3.3341784 0 0 1 4.071381,-0.89276"
       transform="matrix(-0.4808671,0.87679349,0.87679349,0.4808671,0,0)" />
    <path
       style="fill:none;fill-opacity:1;stroke:#000000;stroke-width:0.154921;stroke-linecap:round;stroke-linejoin:round;stroke-miterlimit:0;stroke-dasharray:none;stroke-opacity:1;paint-order:normal"
       id="path4-3-9"
       d="m 140.61896,-196.24234 a 3.353791,3.3341784 0 0 1 3.56636,-1.08907"
       transform="rotate(90.31035)" />
  </g>
</svg>
