<?xml version="1.0" encoding="UTF-8" standalone="no"?>
<!-- Created with Inkscape (http://www.inkscape.org/) -->

<svg
   width="317.5mm"
   height="190.5mm"
   viewBox="0 0 317.5 190.5"
   version="1.1"
   id="svg1"
   inkscape:export-filename="TheBlatFace.svg"
   inkscape:export-xdpi="95.999992"
   inkscape:export-ydpi="95.999992"
   inkscape:version="1.3.2 (091e20e, 2023-11-25, custom)"
   sodipodi:docname="drawings.svg"
   xmlns:inkscape="http://www.inkscape.org/namespaces/inkscape"
   xmlns:sodipodi="http://sodipodi.sourceforge.net/DTD/sodipodi-0.dtd"
   xmlns="http://www.w3.org/2000/svg"
   xmlns:svg="http://www.w3.org/2000/svg">
  <sodipodi:namedview
     id="namedview1"
     pagecolor="#ffffff"
     bordercolor="#000000"
     borderopacity="0.25"
     inkscape:showpageshadow="2"
     inkscape:pageopacity="0.0"
     inkscape:pagecheckerboard="0"
     inkscape:deskcolor="#d1d1d1"
     inkscape:document-units="mm"
     inkscape:zoom="4.1798822"
     inkscape:cx="122.96997"
     inkscape:cy="58.972954"
     inkscape:window-width="3440"
     inkscape:window-height="1369"
     inkscape:window-x="-8"
     inkscape:window-y="1072"
     inkscape:window-maximized="1"
     inkscape:current-layer="layer1">
    <inkscape:page
       x="134.05754"
       y="-83.789444"
       width="52.916668"
       height="52.916668"
       id="page27"
       margin="0"
       bleed="0"
       inkscape:label="TheBlatBody2"
       inkscape:export-filename="..\godot-project\assets\TheBlatBody2.svg"
       inkscape:export-xdpi="95.999992"
       inkscape:export-ydpi="95.999992" />
    <inkscape:page
       x="28.865841"
       y="-83.789444"
       width="13.229167"
       height="13.229167"
       id="page28"
       margin="0"
       bleed="0"
       inkscape:label="TheBlatFace2Closed" />
    <inkscape:page
       x="28.865841"
       y="-66.24379"
       width="13.229167"
       height="13.229167"
       id="page29"
       margin="0"
       bleed="0"
       inkscape:label="TheBlatFace2Open" />
  </sodipodi:namedview>
  <defs
     id="defs1" />
  <g
     inkscape:label="Layer 1"
     inkscape:groupmode="layer"
     id="layer1"
     transform="translate(-173.15289,-224.96898)">
    <path
       id="path5-0"
       style="fill:#feffff;fill-opacity:1;stroke:#000000;stroke-width:0.807523;stroke-linecap:round;stroke-linejoin:round;stroke-miterlimit:0;stroke-dasharray:none;stroke-opacity:1;paint-order:normal"
       d="m 317.14253,145.88158 c -0.53395,0 -1.06828,0.20425 -1.47743,0.6134 -0.81828,0.81829 -0.81828,2.13605 0,2.95434 l 3.89899,3.89899 a 18.346201,18.346201 0 0 0 -4.2416,11.69437 18.346201,18.346201 0 0 0 3.6804,10.94404 l -3.86282,3.86281 c -0.81829,0.81829 -0.81829,2.13605 0,2.95434 0.81829,0.81829 2.13554,0.81829 2.95383,0 l 3.75222,-3.75222 a 18.346201,18.346201 0 0 0 10.80968,4.26485 v 7.93027 c 0,0.56122 0.45163,1.01337 1.01286,1.01337 0.56122,0 1.01337,-0.45215 1.01337,-1.01337 v -7.93027 a 18.346201,18.346201 0 0 0 10.36991,-3.93671 l 3.53674,3.53674 c 0.81828,0.81829 2.13553,0.81829 2.95382,0 0.81829,-0.81829 0.81829,-2.13606 0,-2.95434 l -3.53622,-3.53622 a 18.346201,18.346201 0 0 0 4.00854,-11.38329 18.346201,18.346201 0 0 0 -3.72483,-11.07632 l 3.77806,-3.77807 c 0.81829,-0.81829 0.81829,-2.13553 0,-2.95382 -0.81829,-0.81829 -2.13554,-0.81829 -2.95382,0 l -3.70986,3.70985 a 18.346201,18.346201 0 0 0 -11.73571,-4.2478 18.346201,18.346201 0 0 0 -11.0722,3.77548 l -3.97701,-3.97702 c -0.40915,-0.40915 -0.94296,-0.6134 -1.47692,-0.6134 z" />
    <circle
       style="fill:#ffffff;fill-opacity:1;stroke:#000000;stroke-width:0.529167;stroke-linecap:round;stroke-linejoin:round;stroke-miterlimit:0;stroke-dasharray:none;stroke-opacity:1"
       id="path27"
       cx="351.60263"
       cy="183.02687"
       r="1.1448952" />
    <circle
       style="fill:#ffffff;fill-opacity:1;stroke:#000000;stroke-width:0.529167;stroke-linecap:round;stroke-linejoin:round;stroke-miterlimit:0;stroke-dasharray:none;stroke-opacity:1"
       id="path27-7"
       cx="352.57703"
       cy="181.28085"
       r="1.1448952" />
    <circle
       style="fill:#ffffff;fill-opacity:1;stroke:#000000;stroke-width:0.529167;stroke-linecap:round;stroke-linejoin:round;stroke-miterlimit:0;stroke-dasharray:none;stroke-opacity:1"
       id="path27-1"
       cx="349.75806"
       cy="184.09981"
       r="1.1448952" />
    <circle
       style="fill:#ffffff;fill-opacity:1;stroke:#000000;stroke-width:0.529167;stroke-linecap:round;stroke-linejoin:round;stroke-miterlimit:0;stroke-dasharray:none;stroke-opacity:1"
       id="path27-0"
       cx="352.12811"
       cy="-147.12395"
       r="1.1448952"
       transform="scale(1,-1)" />
    <circle
       style="fill:#ffffff;fill-opacity:1;stroke:#000000;stroke-width:0.529167;stroke-linecap:round;stroke-linejoin:round;stroke-miterlimit:0;stroke-dasharray:none;stroke-opacity:1"
       id="path27-7-8"
       cx="353.10251"
       cy="-148.86996"
       r="1.1448952"
       transform="scale(1,-1)" />
    <path
       style="fill:#fe45ff;fill-opacity:0.995893;stroke:#000000;stroke-width:0.264583;stroke-linecap:round;stroke-linejoin:round;stroke-miterlimit:0;stroke-dasharray:none;stroke-opacity:1"
       id="path29"
       d="m 209.40155,169.98461 a 0.79779291,0.79779291 0 0 1 -0.27143,0.91334 0.79779291,0.79779291 0 0 1 -0.95282,0.002 0.79779291,0.79779291 0 0 1 -0.2751,-0.91224"
       sodipodi:type="arc"
       sodipodi:arc-type="arc"
       sodipodi:start="5.9320917"
       sodipodi:end="3.4886596"
       sodipodi:ry="0.79779291"
       sodipodi:rx="0.79779291"
       sodipodi:cy="170.25899"
       sodipodi:cx="208.65242"
       sodipodi:open="true" />
    <path
       sodipodi:type="star"
       style="fill:#fe45ff;fill-opacity:0.995893;stroke:none;stroke-width:0.264583;stroke-linecap:round;stroke-linejoin:round;stroke-miterlimit:0;stroke-dasharray:none;stroke-opacity:1"
       id="path30"
       inkscape:flatsided="true"
       sodipodi:sides="3"
       sodipodi:cx="97.543121"
       sodipodi:cy="109.46032"
       sodipodi:r1="1.2835068"
       sodipodi:r2="0.69475532"
       sodipodi:arg1="0.53142873"
       sodipodi:arg2="1.5786263"
       inkscape:rounded="0"
       inkscape:randomized="0"
       d="m 98.649612,110.11076 -2.223031,-0.0174 1.12659,-1.9165 z"
       transform="matrix(0.51284357,0,0,0.26458333,158.64116,140.90458)"
       inkscape:transform-center-x="0.011305473"
       inkscape:transform-center-y="-0.01607704" />
    <circle
       style="fill:#ffffff;fill-opacity:1;stroke:#000000;stroke-width:0.529167;stroke-linecap:round;stroke-linejoin:round;stroke-miterlimit:0;stroke-dasharray:none;stroke-opacity:1"
       id="path27-1-7"
       cx="350.28354"
       cy="-146.05101"
       r="1.1448952"
       transform="scale(1,-1)" />
    <circle
       style="fill:#ffffff;fill-opacity:1;stroke:#000000;stroke-width:0.529167;stroke-linecap:round;stroke-linejoin:round;stroke-miterlimit:0;stroke-dasharray:none;stroke-opacity:1"
       id="path27-70"
       cx="-315.07983"
       cy="182.91434"
       r="1.1448952"
       transform="scale(-1,1)" />
    <circle
       style="fill:#ffffff;fill-opacity:1;stroke:#000000;stroke-width:0.529167;stroke-linecap:round;stroke-linejoin:round;stroke-miterlimit:0;stroke-dasharray:none;stroke-opacity:1"
       id="path27-7-9"
       cx="-314.10544"
       cy="181.16832"
       r="1.1448952"
       transform="scale(-1,1)" />
    <circle
       style="fill:#ffffff;fill-opacity:1;stroke:#000000;stroke-width:0.529167;stroke-linecap:round;stroke-linejoin:round;stroke-miterlimit:0;stroke-dasharray:none;stroke-opacity:1"
       id="path27-1-1"
       cx="-316.92441"
       cy="183.98727"
       r="1.1448952"
       transform="scale(-1,1)" />
    <circle
       style="fill:#ffffff;fill-opacity:1;stroke:#000000;stroke-width:0.529167;stroke-linecap:round;stroke-linejoin:round;stroke-miterlimit:0;stroke-dasharray:none;stroke-opacity:1"
       id="path27-07"
       cx="-315.60529"
       cy="-146.38464"
       r="1.1448952"
       transform="scale(-1)" />
    <circle
       style="fill:#ffffff;fill-opacity:1;stroke:#000000;stroke-width:0.529167;stroke-linecap:round;stroke-linejoin:round;stroke-miterlimit:0;stroke-dasharray:none;stroke-opacity:1"
       id="path27-7-1"
       cx="-314.63089"
       cy="-148.13066"
       r="1.1448952"
       transform="scale(-1)" />
    <circle
       style="fill:#ffffff;fill-opacity:1;stroke:#000000;stroke-width:0.529167;stroke-linecap:round;stroke-linejoin:round;stroke-miterlimit:0;stroke-dasharray:none;stroke-opacity:1"
       id="path27-1-72"
       cx="-317.44986"
       cy="-145.31171"
       r="1.1448952"
       transform="scale(-1)" />
    <path
       style="fill:none;stroke:#000000;stroke-width:0.266;stroke-linecap:round;stroke-linejoin:round;stroke-miterlimit:0;stroke-dasharray:none;stroke-opacity:1;paint-order:normal"
       id="path2-4"
       sodipodi:type="arc"
       sodipodi:cx="206.2106"
       sodipodi:cy="147.86392"
       sodipodi:rx="1.6105043"
       sodipodi:ry="1.1234399"
       sodipodi:start="3.3523749"
       sodipodi:end="6.0506073"
       sodipodi:arc-type="arc"
       d="m 204.63574,147.62887 a 1.6105043,1.1234399 0 0 1 1.55731,-0.88832 1.6105043,1.1234399 0 0 1 1.58469,0.86443"
       sodipodi:open="true" />
    <path
       style="fill:none;stroke:#000000;stroke-width:0.201128;stroke-linecap:round;stroke-linejoin:round;stroke-miterlimit:0;stroke-dasharray:none;stroke-opacity:1;paint-order:normal"
       id="path2-1-43"
       sodipodi:type="arc"
       sodipodi:cx="205.086"
       sodipodi:cy="151.37236"
       sodipodi:rx="2.9567084"
       sodipodi:ry="0.93400598"
       sodipodi:start="3.5123634"
       sodipodi:end="5.3555579"
       sodipodi:arc-type="arc"
       d="m 202.3302,151.03394 a 2.9567084,0.93400598 0 0 1 1.94316,-0.55962 2.9567084,0.93400598 0 0 1 2.58588,0.15065"
       sodipodi:open="true" />
    <path
       style="fill:none;stroke:#000000;stroke-width:0.201128;stroke-linecap:round;stroke-linejoin:round;stroke-miterlimit:0;stroke-dasharray:none;stroke-opacity:1;paint-order:normal"
       id="path2-1-6-09"
       sodipodi:type="arc"
       sodipodi:cx="172.72717"
       sodipodi:cy="188.33873"
       sodipodi:rx="2.9567084"
       sodipodi:ry="0.93400598"
       sodipodi:start="3.5123634"
       sodipodi:end="5.3555579"
       sodipodi:arc-type="arc"
       d="m 169.97138,188.00031 a 2.9567084,0.93400598 0 0 1 1.94316,-0.55962 2.9567084,0.93400598 0 0 1 2.58587,0.15065"
       sodipodi:open="true"
       transform="rotate(-10.91302)" />
    <path
       style="fill:none;stroke:#000000;stroke-width:0.201128;stroke-linecap:round;stroke-linejoin:round;stroke-miterlimit:0;stroke-dasharray:none;stroke-opacity:1;paint-order:normal"
       id="path2-1-4-9"
       sodipodi:type="arc"
       sodipodi:cx="139.57266"
       sodipodi:cy="214.85527"
       sodipodi:rx="2.9567084"
       sodipodi:ry="0.93400598"
       sodipodi:start="3.5123634"
       sodipodi:end="5.3555579"
       sodipodi:arc-type="arc"
       d="m 136.81687,214.51685 a 2.9567084,0.93400598 0 0 1 1.94316,-0.55962 2.9567084,0.93400598 0 0 1 2.58587,0.15065"
       sodipodi:open="true"
       transform="rotate(-20.304074)" />
    <path
       style="fill:none;stroke:#000000;stroke-width:0.266093;stroke-linecap:round;stroke-linejoin:round;stroke-miterlimit:0;stroke-dasharray:none;stroke-opacity:1;paint-order:normal"
       id="path2-7-8"
       sodipodi:type="arc"
       sodipodi:cx="-210.70761"
       sodipodi:cy="147.86392"
       sodipodi:rx="1.6105043"
       sodipodi:ry="1.1234399"
       sodipodi:start="3.3523749"
       sodipodi:end="6.0506073"
       sodipodi:arc-type="arc"
       d="m -212.28247,147.62887 a 1.6105043,1.1234399 0 0 1 1.55731,-0.88832 1.6105043,1.1234399 0 0 1 1.58469,0.86443"
       sodipodi:open="true"
       transform="scale(-1,1)" />
    <path
       style="fill:none;stroke:#000000;stroke-width:0.201128;stroke-linecap:round;stroke-linejoin:round;stroke-miterlimit:0;stroke-dasharray:none;stroke-opacity:1;paint-order:normal"
       id="path2-1-62-1"
       sodipodi:type="arc"
       sodipodi:cx="-212.05376"
       sodipodi:cy="151.37236"
       sodipodi:rx="2.9567084"
       sodipodi:ry="0.93400598"
       sodipodi:start="3.5123634"
       sodipodi:end="5.3555579"
       sodipodi:arc-type="arc"
       d="m -214.80955,151.03394 a 2.9567084,0.93400598 0 0 1 1.94316,-0.55962 2.9567084,0.93400598 0 0 1 2.58587,0.15065"
       sodipodi:open="true"
       transform="scale(-1,1)" />
    <path
       style="fill:none;stroke:#000000;stroke-width:0.201128;stroke-linecap:round;stroke-linejoin:round;stroke-miterlimit:0;stroke-dasharray:none;stroke-opacity:1;paint-order:normal"
       id="path2-1-6-0-4"
       sodipodi:type="arc"
       sodipodi:cx="-236.86888"
       sodipodi:cy="109.36642"
       sodipodi:rx="2.9567084"
       sodipodi:ry="0.93400598"
       sodipodi:start="3.5123634"
       sodipodi:end="5.3555579"
       sodipodi:arc-type="arc"
       d="m -239.62468,109.02799 a 2.9567084,0.93400598 0 0 1 1.94316,-0.55961 2.9567084,0.93400598 0 0 1 2.58588,0.15065"
       sodipodi:open="true"
       transform="matrix(-0.98191572,-0.18931858,-0.18931858,0.98191572,0,0)" />
    <path
       style="fill:none;stroke:#000000;stroke-width:0.201128;stroke-linecap:round;stroke-linejoin:round;stroke-miterlimit:0;stroke-dasharray:none;stroke-opacity:1;paint-order:normal"
       id="path2-1-4-8-9"
       sodipodi:type="arc"
       sodipodi:cx="-251.64778"
       sodipodi:cy="70.106812"
       sodipodi:rx="2.9567084"
       sodipodi:ry="0.93400598"
       sodipodi:start="3.5123634"
       sodipodi:end="5.3555579"
       sodipodi:arc-type="arc"
       d="m -254.40358,69.768389 a 2.9567084,0.93400598 0 0 1 1.94316,-0.559614 2.9567084,0.93400598 0 0 1 2.58588,0.150646"
       sodipodi:open="true"
       transform="matrix(-0.93786426,-0.34700234,-0.34700234,0.93786426,0,0)" />
    <path
       style="fill:#fe45ff;fill-opacity:1;stroke:#000000;stroke-width:0.100564;stroke-linecap:round;stroke-linejoin:round;stroke-miterlimit:0;stroke-dasharray:none;stroke-opacity:1;paint-order:normal"
       id="path3-0"
       sodipodi:type="arc"
       sodipodi:cx="208.54123"
       sodipodi:cy="149.94186"
       sodipodi:rx="0.56945932"
       sodipodi:ry="0.7535224"
       sodipodi:start="3.5123634"
       sodipodi:end="5.9029836"
       sodipodi:arc-type="slice"
       d="m 208.01047,149.66884 a 0.56945932,0.7535224 0 0 1 0.52807,-0.48049 0.56945932,0.7535224 0 0 1 0.53148,0.47388 l -0.52879,0.27963 z" />
    <path
       style="fill:none;fill-opacity:1;stroke:#000000;stroke-width:0.154921;stroke-linecap:round;stroke-linejoin:round;stroke-miterlimit:0;stroke-dasharray:none;stroke-opacity:1;paint-order:normal"
       id="path4-8"
       sodipodi:type="arc"
       sodipodi:cx="224.65627"
       sodipodi:cy="-108.46021"
       sodipodi:rx="3.353791"
       sodipodi:ry="3.3341784"
       sodipodi:start="3.8245523"
       sodipodi:end="5.166046"
       sodipodi:arc-type="arc"
       d="m 222.0547,-110.56438 a 3.353791,3.3341784 0 0 1 4.07138,-0.89276"
       transform="rotate(61.257951)"
       sodipodi:open="true" />
    <path
       style="fill:none;fill-opacity:1;stroke:#000000;stroke-width:0.154921;stroke-linecap:round;stroke-linejoin:round;stroke-miterlimit:0;stroke-dasharray:none;stroke-opacity:1;paint-order:normal"
       id="path4-3-7"
       sodipodi:type="arc"
       sodipodi:cx="145.23232"
       sodipodi:cy="205.0555"
       sodipodi:rx="3.353791"
       sodipodi:ry="3.3341784"
       sodipodi:start="3.8245523"
       sodipodi:end="5.0041862"
       sodipodi:arc-type="arc"
       d="m 142.63075,202.95132 a 3.353791,3.3341784 0 0 1 3.56636,-1.08906"
       sodipodi:open="true"
       transform="matrix(0.00541661,0.99998533,0.99998533,-0.00541661,0,0)" />
    <path
       style="fill:none;fill-opacity:1;stroke:#000000;stroke-width:0.154921;stroke-linecap:round;stroke-linejoin:round;stroke-miterlimit:0;stroke-dasharray:none;stroke-opacity:1;paint-order:normal"
       id="path4-4-6"
       sodipodi:type="arc"
       sodipodi:cx="24.242546"
       sodipodi:cy="257.27905"
       sodipodi:rx="3.353791"
       sodipodi:ry="3.3341784"
       sodipodi:start="3.8245523"
       sodipodi:end="5.166046"
       sodipodi:arc-type="arc"
       d="m 21.640983,255.17488 a 3.353791,3.3341784 0 0 1 4.071381,-0.89275"
       transform="matrix(-0.4808671,0.87679349,0.87679349,0.4808671,0,0)"
       sodipodi:open="true" />
    <path
       style="fill:none;fill-opacity:1;stroke:#000000;stroke-width:0.154921;stroke-linecap:round;stroke-linejoin:round;stroke-miterlimit:0;stroke-dasharray:none;stroke-opacity:1;paint-order:normal"
       id="path4-3-9-1"
       sodipodi:type="arc"
       sodipodi:cx="143.12383"
       sodipodi:cy="-211.98938"
       sodipodi:rx="3.353791"
       sodipodi:ry="3.3341784"
       sodipodi:start="3.8245523"
       sodipodi:end="5.0041862"
       sodipodi:arc-type="arc"
       d="m 140.52226,-214.09355 a 3.353791,3.3341784 0 0 1 3.56636,-1.08907"
       sodipodi:open="true"
       transform="rotate(90.31035)" />
    <path
       style="fill:#ffffff;fill-opacity:0;stroke:#000000;stroke-width:0.160949;stroke-linecap:round;stroke-linejoin:round;stroke-miterlimit:0;stroke-dasharray:none;stroke-opacity:1"
       id="path28"
       sodipodi:type="arc"
       sodipodi:cx="207.90564"
       sodipodi:cy="151.75421"
       sodipodi:rx="0.66422272"
       sodipodi:ry="0.66422272"
       sodipodi:start="0"
       sodipodi:end="3.6193522"
       sodipodi:arc-type="arc"
       d="m 208.56986,151.75421 a 0.66422272,0.66422272 0 0 1 -0.42753,0.62062 0.66422272,0.66422272 0 0 1 -0.73223,-0.17832 0.66422272,0.66422272 0 0 1 -0.0943,-0.7477"
       sodipodi:open="true" />
    <path
       style="fill:#ffffff;fill-opacity:0;stroke:#000000;stroke-width:0.160949;stroke-linecap:round;stroke-linejoin:round;stroke-miterlimit:0;stroke-dasharray:none;stroke-opacity:1"
       id="path28-5"
       sodipodi:type="arc"
       sodipodi:cx="-209.23409"
       sodipodi:cy="151.75421"
       sodipodi:rx="0.66422272"
       sodipodi:ry="0.66422272"
       sodipodi:start="0"
       sodipodi:end="3.6193522"
       sodipodi:arc-type="arc"
       d="m -208.56986,151.75421 a 0.66422272,0.66422272 0 0 1 -0.42754,0.62062 0.66422272,0.66422272 0 0 1 -0.73223,-0.17832 0.66422272,0.66422272 0 0 1 -0.0943,-0.7477"
       sodipodi:open="true"
       transform="scale(-1,1)" />
    <path
       style="fill:none;stroke:#000000;stroke-width:0.266;stroke-linecap:round;stroke-linejoin:round;stroke-miterlimit:0;stroke-dasharray:none;stroke-opacity:1;paint-order:normal"
       id="path2-4-1"
       sodipodi:type="arc"
       sodipodi:cx="206.30368"
       sodipodi:cy="165.38142"
       sodipodi:rx="1.6105043"
       sodipodi:ry="1.1234399"
       sodipodi:start="3.3523749"
       sodipodi:end="6.0506073"
       sodipodi:arc-type="arc"
       d="m 204.72882,165.14637 a 1.6105043,1.1234399 0 0 1 1.55731,-0.88832 1.6105043,1.1234399 0 0 1 1.58469,0.86444"
       sodipodi:open="true" />
    <path
       style="fill:none;stroke:#000000;stroke-width:0.201128;stroke-linecap:round;stroke-linejoin:round;stroke-miterlimit:0;stroke-dasharray:none;stroke-opacity:1;paint-order:normal"
       id="path2-1-43-1"
       sodipodi:type="arc"
       sodipodi:cx="205.17908"
       sodipodi:cy="168.88986"
       sodipodi:rx="2.9567084"
       sodipodi:ry="0.93400598"
       sodipodi:start="3.5123634"
       sodipodi:end="5.3555579"
       sodipodi:arc-type="arc"
       d="m 202.42328,168.55144 a 2.9567084,0.93400598 0 0 1 1.94316,-0.55961 2.9567084,0.93400598 0 0 1 2.58588,0.15064"
       sodipodi:open="true" />
    <path
       style="fill:none;stroke:#000000;stroke-width:0.201128;stroke-linecap:round;stroke-linejoin:round;stroke-miterlimit:0;stroke-dasharray:none;stroke-opacity:1;paint-order:normal"
       id="path2-1-6-09-0"
       sodipodi:type="arc"
       sodipodi:cx="169.50218"
       sodipodi:cy="205.55707"
       sodipodi:rx="2.9567084"
       sodipodi:ry="0.93400598"
       sodipodi:start="3.5123634"
       sodipodi:end="5.3555579"
       sodipodi:arc-type="arc"
       d="m 166.74639,205.21865 a 2.9567084,0.93400598 0 0 1 1.94316,-0.55962 2.9567084,0.93400598 0 0 1 2.58587,0.15065"
       sodipodi:open="true"
       transform="rotate(-10.91302)" />
    <path
       style="fill:none;stroke:#000000;stroke-width:0.201128;stroke-linecap:round;stroke-linejoin:round;stroke-miterlimit:0;stroke-dasharray:none;stroke-opacity:1;paint-order:normal"
       id="path2-1-4-9-1"
       sodipodi:type="arc"
       sodipodi:cx="133.58134"
       sodipodi:cy="231.3166"
       sodipodi:rx="2.9567084"
       sodipodi:ry="0.93400598"
       sodipodi:start="3.5123634"
       sodipodi:end="5.3555579"
       sodipodi:arc-type="arc"
       d="m 130.82555,230.97818 a 2.9567084,0.93400598 0 0 1 1.94316,-0.55961 2.9567084,0.93400598 0 0 1 2.58587,0.15064"
       sodipodi:open="true"
       transform="rotate(-20.304074)" />
    <path
       style="fill:none;stroke:#000000;stroke-width:0.266093;stroke-linecap:round;stroke-linejoin:round;stroke-miterlimit:0;stroke-dasharray:none;stroke-opacity:1;paint-order:normal"
       id="path2-7-8-5"
       sodipodi:type="arc"
       sodipodi:cx="-210.80069"
       sodipodi:cy="165.38142"
       sodipodi:rx="1.6105043"
       sodipodi:ry="1.1234399"
       sodipodi:start="3.3523749"
       sodipodi:end="6.0506073"
       sodipodi:arc-type="arc"
       d="m -212.37555,165.14637 a 1.6105043,1.1234399 0 0 1 1.55731,-0.88832 1.6105043,1.1234399 0 0 1 1.58469,0.86444"
       sodipodi:open="true"
       transform="scale(-1,1)" />
    <path
       style="fill:none;stroke:#000000;stroke-width:0.201128;stroke-linecap:round;stroke-linejoin:round;stroke-miterlimit:0;stroke-dasharray:none;stroke-opacity:1;paint-order:normal"
       id="path2-1-62-1-0"
       sodipodi:type="arc"
       sodipodi:cx="-212.14684"
       sodipodi:cy="168.88986"
       sodipodi:rx="2.9567084"
       sodipodi:ry="0.93400598"
       sodipodi:start="3.5123634"
       sodipodi:end="5.3555579"
       sodipodi:arc-type="arc"
       d="m -214.90263,168.55144 a 2.9567084,0.93400598 0 0 1 1.94316,-0.55961 2.9567084,0.93400598 0 0 1 2.58587,0.15064"
       sodipodi:open="true"
       transform="scale(-1,1)" />
    <path
       style="fill:none;stroke:#000000;stroke-width:0.201128;stroke-linecap:round;stroke-linejoin:round;stroke-miterlimit:0;stroke-dasharray:none;stroke-opacity:1;paint-order:normal"
       id="path2-1-6-0-4-3"
       sodipodi:type="arc"
       sodipodi:cx="-240.27667"
       sodipodi:cy="126.54952"
       sodipodi:rx="2.9567084"
       sodipodi:ry="0.93400598"
       sodipodi:start="3.5123634"
       sodipodi:end="5.3555579"
       sodipodi:arc-type="arc"
       d="m -243.03247,126.2111 a 2.9567084,0.93400598 0 0 1 1.94316,-0.55961 2.9567084,0.93400598 0 0 1 2.58588,0.15064"
       sodipodi:open="true"
       transform="matrix(-0.98191572,-0.18931858,-0.18931858,0.98191572,0,0)" />
    <path
       style="fill:none;stroke:#000000;stroke-width:0.201128;stroke-linecap:round;stroke-linejoin:round;stroke-miterlimit:0;stroke-dasharray:none;stroke-opacity:1;paint-order:normal"
       id="path2-1-4-8-9-8"
       sodipodi:type="arc"
       sodipodi:cx="-257.81369"
       sodipodi:cy="86.503555"
       sodipodi:rx="2.9567084"
       sodipodi:ry="0.93400598"
       sodipodi:start="3.5123634"
       sodipodi:end="5.3555579"
       sodipodi:arc-type="arc"
       d="m -260.56949,86.165133 a 2.9567084,0.93400598 0 0 1 1.94316,-0.559614 2.9567084,0.93400598 0 0 1 2.58588,0.150645"
       sodipodi:open="true"
       transform="matrix(-0.93786426,-0.34700234,-0.34700234,0.93786426,0,0)" />
    <path
       style="fill:#fe45ff;fill-opacity:1;stroke:#000000;stroke-width:0.100564;stroke-linecap:round;stroke-linejoin:round;stroke-miterlimit:0;stroke-dasharray:none;stroke-opacity:1;paint-order:normal"
       id="path3-0-2"
       sodipodi:type="arc"
       sodipodi:cx="208.63431"
       sodipodi:cy="167.45937"
       sodipodi:rx="0.56945932"
       sodipodi:ry="0.7535224"
       sodipodi:start="3.5123634"
       sodipodi:end="5.9029836"
       sodipodi:arc-type="slice"
       d="m 208.10354,167.18634 a 0.56945932,0.7535224 0 0 1 0.52808,-0.48049 0.56945932,0.7535224 0 0 1 0.53148,0.47388 l -0.52879,0.27964 z" />
    <path
       style="fill:none;fill-opacity:1;stroke:#000000;stroke-width:0.154921;stroke-linecap:round;stroke-linejoin:round;stroke-miterlimit:0;stroke-dasharray:none;stroke-opacity:1;paint-order:normal"
       id="path4-8-5"
       sodipodi:type="arc"
       sodipodi:cx="240.06027"
       sodipodi:cy="-100.11823"
       sodipodi:rx="3.353791"
       sodipodi:ry="3.3341784"
       sodipodi:start="3.8245523"
       sodipodi:end="5.166046"
       sodipodi:arc-type="arc"
       d="m 237.45871,-102.2224 a 3.353791,3.3341784 0 0 1 4.07138,-0.89276"
       transform="rotate(61.257951)"
       sodipodi:open="true" />
    <path
       style="fill:none;fill-opacity:1;stroke:#000000;stroke-width:0.154921;stroke-linecap:round;stroke-linejoin:round;stroke-miterlimit:0;stroke-dasharray:none;stroke-opacity:1;paint-order:normal"
       id="path4-3-7-4"
       sodipodi:type="arc"
       sodipodi:cx="162.75008"
       sodipodi:cy="205.0537"
       sodipodi:rx="3.353791"
       sodipodi:ry="3.3341784"
       sodipodi:start="3.8245523"
       sodipodi:end="5.0041862"
       sodipodi:arc-type="arc"
       d="m 160.14851,202.94952 a 3.353791,3.3341784 0 0 1 3.56636,-1.08906"
       sodipodi:open="true"
       transform="matrix(0.00541661,0.99998533,0.99998533,-0.00541661,0,0)" />
    <path
       style="fill:none;fill-opacity:1;stroke:#000000;stroke-width:0.154921;stroke-linecap:round;stroke-linejoin:round;stroke-miterlimit:0;stroke-dasharray:none;stroke-opacity:1;paint-order:normal"
       id="path4-4-6-4"
       sodipodi:type="arc"
       sodipodi:cx="39.557022"
       sodipodi:cy="265.78427"
       sodipodi:rx="3.353791"
       sodipodi:ry="3.3341784"
       sodipodi:start="3.8245523"
       sodipodi:end="5.166046"
       sodipodi:arc-type="arc"
       d="m 36.955459,263.6801 a 3.353791,3.3341784 0 0 1 4.071381,-0.89276"
       transform="matrix(-0.4808671,0.87679349,0.87679349,0.4808671,0,0)"
       sodipodi:open="true" />
    <path
       style="fill:none;fill-opacity:1;stroke:#000000;stroke-width:0.154921;stroke-linecap:round;stroke-linejoin:round;stroke-miterlimit:0;stroke-dasharray:none;stroke-opacity:1;paint-order:normal"
       id="path4-3-9-1-4"
       sodipodi:type="arc"
       sodipodi:cx="160.64058"
       sodipodi:cy="-212.17734"
       sodipodi:rx="3.353791"
       sodipodi:ry="3.3341784"
       sodipodi:start="3.8245523"
       sodipodi:end="5.0041862"
       sodipodi:arc-type="arc"
       d="m 158.03902,-214.28151 a 3.353791,3.3341784 0 0 1 3.56636,-1.08907"
       sodipodi:open="true"
       transform="rotate(90.31035)" />
    <path
       style="fill:#ffffff;fill-opacity:0;stroke:#000000;stroke-width:0.160949;stroke-linecap:round;stroke-linejoin:round;stroke-miterlimit:0;stroke-dasharray:none;stroke-opacity:1"
       id="path28-2"
       sodipodi:type="arc"
       sodipodi:cx="207.99872"
       sodipodi:cy="169.27171"
       sodipodi:rx="0.66422272"
       sodipodi:ry="0.66422272"
       sodipodi:start="0"
       sodipodi:end="3.6193522"
       sodipodi:arc-type="arc"
       d="m 208.66294,169.27171 a 0.66422272,0.66422272 0 0 1 -0.42753,0.62062 0.66422272,0.66422272 0 0 1 -0.73223,-0.17831 0.66422272,0.66422272 0 0 1 -0.0943,-0.74771"
       sodipodi:open="true" />
    <path
       style="fill:#ffffff;fill-opacity:0;stroke:#000000;stroke-width:0.160949;stroke-linecap:round;stroke-linejoin:round;stroke-miterlimit:0;stroke-dasharray:none;stroke-opacity:1"
       id="path28-5-6"
       sodipodi:type="arc"
       sodipodi:cx="-209.32716"
       sodipodi:cy="169.27171"
       sodipodi:rx="0.66422272"
       sodipodi:ry="0.66422272"
       sodipodi:start="0"
       sodipodi:end="3.6193522"
       sodipodi:arc-type="arc"
       d="m -208.66294,169.27171 a 0.66422272,0.66422272 0 0 1 -0.42754,0.62062 0.66422272,0.66422272 0 0 1 -0.73222,-0.17831 0.66422272,0.66422272 0 0 1 -0.0943,-0.74771"
       sodipodi:open="true"
       transform="scale(-1,1)" />
  </g>
</svg>
